<?xml version="1.0" encoding="utf-8"?>
<!-- Generated by IcoMoon.io -->
<!DOCTYPE svg PUBLIC "-//W3C//DTD SVG 1.1//EN" "http://www.w3.org/Graphics/SVG/1.1/DTD/svg11.dtd">
<svg version="1.1" xmlns="http://www.w3.org/2000/svg" xmlns:xlink="http://www.w3.org/1999/xlink" width="512" height="512" viewBox="0 0 512 512">
<g>
</g>
	<path d="M333.803 256.010c5.325 37.161-14.121 60.139-54.825 67.216 0 31.836 0 65.423 0 99.041 91.955-21.218 155.648-65.444 148.583-171.55-31.836 1.731-61.921 3.492-93.757 5.294v0zM255.97 33.127c123.833 0 224.645 100.823 224.645 222.884 0 123.822-100.813 222.863-224.645 222.863-123.771 0-224.583-99.041-224.583-222.863 0-122.061 100.813-222.884 224.583-222.884v0zM255.97 61.471c107.909 0 196.352 86.651 196.352 194.539 0 107.899-88.443 196.311-196.352 196.311-109.639 0-198.093-88.412-198.093-196.311 0-107.888 88.453-194.54 198.093-194.54v0zM255.97 215.316c23.009 0 42.465 17.705 42.465 40.694 0 22.978-19.456 42.455-42.465 42.455-22.958 0-42.434-19.476-42.434-42.455 0.010-22.989 19.476-40.694 42.435-40.694v0zM233.011 96.829c7.076 31.826 15.913 61.922 24.75 93.716 22.999-5.274 38.902 1.792 47.749 19.487 26.532-17.705 53.063-35.4 79.586-53.054-37.151-42.475-83.129-70.779-152.084-60.15z" fill="#00c6ff" />
</svg>
